<svg width="22" height="22" viewBox="0 0 22 22" fill="none" xmlns="http://www.w3.org/2000/svg">
<path d="M13.75 0V7.42637C14.378 7.78797 14.8997 8.30868 15.2624 8.93605C15.6251 9.56343 15.8161 10.2753 15.8161 11C15.8161 11.7247 15.6251 12.4366 15.2624 13.0639C14.8997 13.6913 14.378 14.212 13.75 14.5736V22L6.41712 16.5H0V5.5H6.41712L13.75 0ZM11 5.5L7.33288 8.25H2.75V13.75H7.33288L11 16.5V5.5Z" fill="black"/>
<path d="M18.7 4.40001L17.6013 3.57501L15.95 5.77364L17.05 6.59864C17.4671 6.91218 17.8375 7.28348 18.15 7.70139C18.8416 8.61989 19.25 9.75976 19.25 11C19.25 12.2403 18.8416 13.3788 18.15 14.3C17.8373 14.7169 17.4669 15.0873 17.05 15.4L15.95 16.2264L17.6013 18.4264L18.7013 17.6C19.3257 17.1308 19.8804 16.5752 20.3486 15.95C21.4219 14.5231 22.0015 12.7855 22 11C22 9.14376 21.3853 7.42776 20.35 6.05001C19.8809 5.42462 19.3253 4.86906 18.7 4.40001Z" fill="black"/>
</svg>
